<svg data-v-75c95e46="" xmlns="http://www.w3.org/2000/svg" fill="grey" width="24" height="24" viewBox="0 0 24 24"><path transform="translate(-432 -1330) translate(432 1330) translate(1 3)" d="M3.707.293c-.391-.39-1.023-.39-1.414 0-.391.391-.391 1.023 0 1.414l2.06 2.06C1.544 5.407 0 7.767 0 9c0 2 4 7 11 7 1.782 0 3.364-.33 4.739-.847l2.554 2.554c.195.195.451.293.707.293.256 0 .512-.098.707-.293.391-.39.391-1.023 0-1.414l-16-16zm2.12 4.948l.66.66C6.185 6.541 6 7.245 6 8.001c0 2.76 2.239 5 5 5 .757 0 1.469-.174 2.109-.478l1.038 1.038c-.941.267-1.982.44-3.147.44-5.749 0-8.821-3.923-8.997-5 .112-.688 1.419-2.516 3.824-3.76zM11 2.001c7 0 11 5 11 7 0 1.1-1.219 3.108-3.477 4.693l-1.442-1.442C18.912 11.062 19.9 9.596 19.997 9c-.134-.823-1.96-3.297-5.37-4.425C15.473 5.47 16 6.671 16 8c0 .91-.261 1.751-.686 2.486l-7.991-7.99C8.435 2.185 9.662 2 11 2z"></path></svg>